<svg width="32" height="32" viewBox="0 0 32 32" fill="none" xmlns="http://www.w3.org/2000/svg">
<g clip-path="url(#clip0_1_97)">
<path fill-rule="evenodd" clip-rule="evenodd" d="M2.5599 2H2V2.552V30.448V31H2.5599H20.991H21.5509V30.448V21.4007C21.5509 21.0958 21.3002 20.8487 20.991 20.8487C20.6817 20.8487 20.4311 21.0958 20.4311 21.4007V29.896H3.11981V3.10399H20.4311V12.3533C20.4311 12.6582 20.6817 12.9053 20.991 12.9053C21.3002 12.9053 21.5509 12.6582 21.5509 12.3533V2.552V2H20.991H2.5599ZM25.9938 11.9622C25.7747 11.747 25.4202 11.7478 25.202 11.9638C24.9838 12.1798 24.9845 12.5293 25.2037 12.7444L29.413 16.877L25.2037 21.0095C24.9845 21.2246 24.9838 21.5741 25.202 21.7902C25.4202 22.0062 25.7747 22.0069 25.9938 21.7918L30.6016 17.2681L31 16.877L30.6016 16.4858L25.9938 11.9622Z" fill="black" stroke="black" stroke-width="1.5" stroke-linecap="round"/>
<path fill-rule="evenodd" clip-rule="evenodd" d="M10 16.5C10 16.2239 10.2502 16 10.5588 16L28.4412 16C28.7498 16 29 16.2239 29 16.5C29 16.7761 28.7498 17 28.4412 17L10.5588 17C10.2502 17 10 16.7761 10 16.5Z" fill="black" stroke="black" stroke-width="1.5" stroke-linecap="round"/>
</g>
<defs>
<clipPath id="clip0_1_97">
<rect width="32" height="32" fill="white"/>
</clipPath>
</defs>
</svg>
