<svg width="112" height="32" viewBox="0 0 112 32" fill="none" xmlns="http://www.w3.org/2000/svg">
<path d="M14.56 8.66H17.76V10.84H14.56V8.66ZM14.56 12.68H17.76V14.86H14.56V12.68ZM12.72 6.26H15.38V17.18H12.72V6.26ZM3.02 17.94H15.38V24.78H12.72V20.06H3.02V17.94ZM5.96 7.26C8.82 7.26 11 9.16 11 11.8C11 14.44 8.82 16.32 5.96 16.32C3.1 16.32 0.92 14.44 0.92 11.8C0.92 9.16 3.1 7.26 5.96 7.26ZM5.96 9.52C4.56 9.52 3.52 10.34 3.52 11.8C3.52 13.26 4.56 14.1 5.96 14.1C7.36 14.1 8.4 13.26 8.4 11.8C8.4 10.34 7.36 9.52 5.96 9.52ZM20.0184 7.6H27.9384V9.74H20.0184V7.6ZM22.2984 11.92H24.9384V16.56H22.2984V11.92ZM26.8984 7.6H29.5184V8.76C29.5184 10.06 29.5184 11.9 29.0784 14.2L26.4984 13.92C26.8984 11.64 26.8984 10.04 26.8984 8.76V7.6ZM31.3184 6.26H33.9984V20.12H31.3184V6.26ZM32.9384 11.9H36.1984V14.08H32.9384V11.9ZM21.6384 22.34H34.5784V24.46H21.6384V22.34ZM21.6384 18.88H24.2984V23H21.6384V18.88ZM19.1784 17.64L18.9384 15.54C22.1384 15.54 26.5984 15.48 30.3184 14.96L30.4784 16.84C26.6584 17.56 22.3584 17.64 19.1784 17.64ZM37.6169 14.96H54.3769V17.08H37.6169V14.96ZM44.6769 12.18H47.3169V15.78H44.6769V12.18ZM39.6369 11.34H52.4769V13.44H39.6369V11.34ZM39.6369 7.06H52.3769V9.14H42.2769V12.68H39.6369V7.06ZM45.9369 18C49.9369 18 52.3569 19.22 52.3569 21.4C52.3569 23.58 49.9369 24.8 45.9369 24.8C41.9369 24.8 39.4969 23.58 39.4969 21.4C39.4969 19.22 41.9369 18 45.9369 18ZM45.9369 20C43.4569 20 42.1969 20.46 42.1969 21.4C42.1969 22.36 43.4569 22.78 45.9369 22.78C48.4169 22.78 49.6769 22.36 49.6769 21.4C49.6769 20.46 48.4169 20 45.9369 20ZM61.9553 7.48C64.8753 7.48 67.0553 9.38 67.0553 12.04C67.0553 14.72 64.8753 16.62 61.9553 16.62C59.0553 16.62 56.8353 14.72 56.8353 12.04C56.8353 9.38 59.0553 7.48 61.9553 7.48ZM61.9553 9.76C60.5353 9.76 59.4553 10.6 59.4553 12.04C59.4553 13.5 60.5353 14.34 61.9553 14.34C63.3753 14.34 64.4553 13.5 64.4553 12.04C64.4553 10.6 63.3753 9.76 61.9553 9.76ZM68.7953 6.24H71.4553V24.82H68.7953V6.24ZM56.3953 21.06L56.0753 18.92C59.3353 18.92 63.8753 18.88 67.7753 18.3L67.9753 20.22C63.9553 21.02 59.5953 21.06 56.3953 21.06Z" fill="black"/>
<path d="M14.56 8.66H17.76V10.84H14.56V8.66ZM14.56 12.68H17.76V14.86H14.56V12.68ZM12.72 6.26H15.38V17.18H12.72V6.26ZM3.02 17.94H15.38V24.78H12.72V20.06H3.02V17.94ZM5.96 7.26C8.82 7.26 11 9.16 11 11.8C11 14.44 8.82 16.32 5.96 16.32C3.1 16.32 0.92 14.44 0.92 11.8C0.92 9.16 3.1 7.26 5.96 7.26ZM5.96 9.52C4.56 9.52 3.52 10.34 3.52 11.8C3.52 13.26 4.56 14.1 5.96 14.1C7.36 14.1 8.4 13.26 8.4 11.8C8.4 10.34 7.36 9.52 5.96 9.52ZM20.0184 7.6H27.9384V9.74H20.0184V7.6ZM22.2984 11.92H24.9384V16.56H22.2984V11.92ZM26.8984 7.6H29.5184V8.76C29.5184 10.06 29.5184 11.9 29.0784 14.2L26.4984 13.92C26.8984 11.64 26.8984 10.04 26.8984 8.76V7.6ZM31.3184 6.26H33.9984V20.12H31.3184V6.26ZM32.9384 11.9H36.1984V14.08H32.9384V11.9ZM21.6384 22.34H34.5784V24.46H21.6384V22.34ZM21.6384 18.88H24.2984V23H21.6384V18.88ZM19.1784 17.64L18.9384 15.54C22.1384 15.54 26.5984 15.48 30.3184 14.96L30.4784 16.84C26.6584 17.56 22.3584 17.64 19.1784 17.64ZM37.6169 14.96H54.3769V17.08H37.6169V14.96ZM44.6769 12.18H47.3169V15.78H44.6769V12.18ZM39.6369 11.34H52.4769V13.44H39.6369V11.34ZM39.6369 7.06H52.3769V9.14H42.2769V12.68H39.6369V7.06ZM45.9369 18C49.9369 18 52.3569 19.22 52.3569 21.4C52.3569 23.58 49.9369 24.8 45.9369 24.8C41.9369 24.8 39.4969 23.58 39.4969 21.4C39.4969 19.22 41.9369 18 45.9369 18ZM45.9369 20C43.4569 20 42.1969 20.46 42.1969 21.4C42.1969 22.36 43.4569 22.78 45.9369 22.78C48.4169 22.78 49.6769 22.36 49.6769 21.4C49.6769 20.46 48.4169 20 45.9369 20ZM61.9553 7.48C64.8753 7.48 67.0553 9.38 67.0553 12.04C67.0553 14.72 64.8753 16.62 61.9553 16.62C59.0553 16.62 56.8353 14.72 56.8353 12.04C56.8353 9.38 59.0553 7.48 61.9553 7.48ZM61.9553 9.76C60.5353 9.76 59.4553 10.6 59.4553 12.04C59.4553 13.5 60.5353 14.34 61.9553 14.34C63.3753 14.34 64.4553 13.5 64.4553 12.04C64.4553 10.6 63.3753 9.76 61.9553 9.76ZM68.7953 6.24H71.4553V24.82H68.7953V6.24ZM56.3953 21.06L56.0753 18.92C59.3353 18.92 63.8753 18.88 67.7753 18.3L67.9753 20.22C63.9553 21.02 59.5953 21.06 56.3953 21.06Z" fill="black"/>
<g clip-path="url(#clip0_9_375)">
<rect x="80" width="32" height="32" rx="4" fill="#2BCD3B"/>
<path d="M88 12.6154L95.6207 23L105 8" stroke="white" stroke-width="2" stroke-linecap="round"/>
</g>
<defs>
<clipPath id="clip0_9_375">
<rect width="32" height="32" fill="white" transform="translate(80)"/>
</clipPath>
</defs>
</svg>
