<svg width="112" height="32" viewBox="0 0 112 32" fill="none" xmlns="http://www.w3.org/2000/svg">
<g clip-path="url(#clip0_9_364)">
<rect x="81" y="1" width="30" height="30" rx="3" stroke="#717171" stroke-width="2"/>
</g>
<path d="M3.58 12.82C3.58 14.24 4.6 15.1 6 15.1C7.38 15.1 8.42 14.24 8.42 12.82C8.42 11.38 7.38 10.54 6 10.54C4.6 10.54 3.58 11.38 3.58 12.82ZM10.98 12.82C10.98 15.44 8.82 17.32 6 17.32C3.16 17.32 1 15.44 1 12.82C1 10.2 3.16 8.3 6 8.3C8.82 8.3 10.98 10.2 10.98 12.82ZM3.08 21.02V18.9H15.36V25.74H12.72V21.02H3.08ZM17.72 11.84H15.36V13.68H17.72V15.84H15.36V18.16H12.72V7.3H15.36V9.7H17.72V11.84ZM29.0984 15.2L26.5184 14.9C26.8184 13.18 26.8984 11.84 26.9184 10.74H20.0584V8.64H29.5184V9.78C29.5184 11.06 29.5184 12.88 29.0984 15.2ZM30.3184 15.94L30.4784 17.82C26.6784 18.52 22.3984 18.6 19.2384 18.62L18.9984 16.52C20.0184 16.52 21.1584 16.52 22.3584 16.5V12.92H24.9384V16.4C26.7584 16.32 28.5984 16.18 30.3184 15.94ZM24.3184 19.86V23.3H34.5384V25.4H21.6784V19.86H24.3184ZM33.9584 12.9H36.1584V15.08H33.9584V21.08H31.3184V7.28H33.9584V12.9ZM45.9369 23.74C48.3969 23.74 49.6569 23.32 49.6569 22.36C49.6569 21.4 48.3969 20.96 45.9369 20.96C43.4769 20.96 42.2169 21.4 42.2169 22.36C42.2169 23.32 43.4769 23.74 45.9369 23.74ZM45.9369 18.96C49.9169 18.96 52.3369 20.18 52.3369 22.36C52.3369 24.52 49.9169 25.74 45.9369 25.74C41.9569 25.74 39.5569 24.52 39.5569 22.36C39.5569 20.18 41.9569 18.96 45.9369 18.96ZM47.3169 15.96H54.3369V18.06H37.6769V15.96H44.6769V14.44H39.6969V8.08H52.3369V10.18H42.3169V12.34H52.4369V14.44H47.3169V15.96ZM61.9753 8.52C64.8553 8.52 67.0553 10.42 67.0553 13.06C67.0553 15.72 64.8553 17.6 61.9753 17.6C59.0953 17.6 56.9153 15.72 56.9153 13.06C56.9153 10.42 59.0953 8.52 61.9753 8.52ZM61.9753 10.78C60.5553 10.78 59.4753 11.62 59.4753 13.06C59.4753 14.5 60.5553 15.34 61.9753 15.34C63.3953 15.34 64.4753 14.5 64.4753 13.06C64.4753 11.62 63.3953 10.78 61.9753 10.78ZM68.7753 7.28H71.4153V25.76H68.7753V7.28ZM56.4753 22.02L56.1353 19.88C59.3753 19.88 63.8953 19.86 67.7753 19.28L67.9353 21.18C63.9753 21.98 59.6553 22.02 56.4753 22.02Z" fill="black"/>
<defs>
<clipPath id="clip0_9_364">
<rect width="32" height="32" fill="white" transform="translate(80)"/>
</clipPath>
</defs>
</svg>
