<svg width="62" height="62" viewBox="0 0 62 62" fill="none" xmlns="http://www.w3.org/2000/svg">
<path fill-rule="evenodd" clip-rule="evenodd" d="M38.3071 30.5567C40.245 28.6189 41.3337 25.9905 41.3337 23.25C41.3337 20.5094 40.245 17.8811 38.3071 15.9432C36.3692 14.0053 33.7409 12.9166 31.0003 12.9166C28.2598 12.9166 25.6314 14.0053 23.6936 15.9432C21.7557 17.8811 20.667 20.5094 20.667 23.25C20.667 25.9905 21.7557 28.6189 23.6936 30.5567C25.6314 32.4946 28.2598 33.5833 31.0003 33.5833C33.7409 33.5833 36.3692 32.4946 38.3071 30.5567Z" fill="#717171"/>
<path fill-rule="evenodd" clip-rule="evenodd" d="M2.5835 31C2.5835 15.3063 15.3064 2.58337 31.0002 2.58337C46.6939 2.58337 59.4168 15.3063 59.4168 31C59.4168 46.6938 46.6939 59.4167 31.0002 59.4167C15.3064 59.4167 2.5835 46.6938 2.5835 31ZM12.6792 45.3169C9.59208 41.3695 7.75016 36.3992 7.75016 31C7.75063 27.3084 8.63017 23.6699 10.316 20.3856C12.0018 17.1014 14.4455 14.2658 17.4448 12.1134C20.4441 9.96109 23.9128 8.55391 27.564 8.0083C31.2151 7.4627 34.9437 7.79437 38.4412 8.97585C41.9386 10.1573 45.1045 12.1547 47.6768 14.8026C50.2491 17.4506 52.1539 20.673 53.2336 24.2032C54.3133 27.7335 54.5368 31.4701 53.8856 35.1039C53.2345 38.7377 51.7274 42.1642 49.4891 45.0999C47.3164 42.3148 44.5367 40.0625 41.3617 38.5144C38.1868 36.9663 34.7003 36.1634 31.1681 36.1667C27.5895 36.1636 24.0587 36.9879 20.8514 38.5752C17.6441 40.1625 14.8472 42.4698 12.6792 45.3169Z" fill="#717171"/>
</svg>
