<svg width="32" height="32" viewBox="0 0 32 32" fill="none" xmlns="http://www.w3.org/2000/svg">
<g clip-path="url(#clip0_5_179)">
<circle cx="16" cy="16" r="15" stroke="#D72F2F" stroke-width="2"/>
<path d="M17.5156 8L17.3125 19.3984H15.1484L14.9453 8H17.5156ZM16.2344 24.1484C15.8021 24.1484 15.4323 23.9974 15.125 23.6953C14.8177 23.388 14.6667 23.0182 14.6719 22.5859C14.6667 22.1589 14.8177 21.7943 15.125 21.4922C15.4323 21.1849 15.8021 21.0312 16.2344 21.0312C16.6563 21.0312 17.0208 21.1849 17.3281 21.4922C17.6354 21.7943 17.7917 22.1589 17.7969 22.5859C17.7917 22.8724 17.7161 23.1354 17.5703 23.375C17.4297 23.6094 17.2422 23.7969 17.0078 23.9375C16.7734 24.0781 16.5156 24.1484 16.2344 24.1484Z" fill="#D72F2F"/>
</g>
<defs>
<clipPath id="clip0_5_179">
<rect width="32" height="32" fill="white"/>
</clipPath>
</defs>
</svg>
