<svg width="175" height="34" viewBox="0 0 175 34" fill="none" xmlns="http://www.w3.org/2000/svg">
<path d="M21.9 3.536H25.652V29.548H21.9V3.536ZM5.408 5.608H9.104V11.908H14.452V5.608H18.148V23.5H5.408V5.608ZM9.104 14.792V20.504H14.452V14.792H9.104ZM48.4418 3.564H51.9698V19.804H48.4418V3.564ZM45.2778 9.948H49.4218V12.972H45.2778V9.948ZM43.0658 4.068H46.5378V18.964H43.0658V4.068ZM29.7658 6.224H42.3378V9.08H29.7658V6.224ZM36.0938 9.92C39.3418 9.92 41.6938 11.768 41.6938 14.456C41.6938 17.144 39.3418 18.964 36.0938 18.964C32.8458 18.964 30.4938 17.144 30.4938 14.456C30.4938 11.768 32.8458 9.92 36.0938 9.92ZM36.0938 12.58C34.7218 12.58 33.7978 13.252 33.7978 14.456C33.7978 15.66 34.7218 16.332 36.0938 16.332C37.4378 16.332 38.3618 15.66 38.3618 14.456C38.3618 13.252 37.4378 12.58 36.0938 12.58ZM34.2178 3.816H37.8858V8.184H34.2178V3.816ZM43.2058 20.084C48.7498 20.084 52.1098 21.764 52.1098 24.788C52.1098 27.784 48.7498 29.492 43.2058 29.492C37.6338 29.492 34.2738 27.784 34.2738 24.788C34.2738 21.764 37.6338 20.084 43.2058 20.084ZM43.2058 22.856C39.7338 22.856 37.9978 23.444 37.9978 24.788C37.9978 26.104 39.7338 26.72 43.2058 26.72C46.6498 26.72 48.3858 26.104 48.3858 24.788C48.3858 23.444 46.6498 22.856 43.2058 22.856ZM73.4996 3.564H77.2516V29.492H73.4996V3.564ZM65.8556 6.252H69.5516C69.5516 14.176 66.8636 20.672 57.6516 25.124L55.7196 22.156C63.1676 18.572 65.8556 13.868 65.8556 6.924V6.252ZM57.0916 6.252H67.6196V9.192H57.0916V6.252ZM82.0934 20.392H83.9414C87.0774 20.392 89.8494 20.308 93.0694 19.748L93.3774 22.744C90.0454 23.36 87.1894 23.444 83.9414 23.444H82.0934V20.392ZM82.0654 6.112H91.2214V16.024H85.7054V21.568H82.0934V13.112H87.6374V9.052H82.0654V6.112ZM100.125 3.564H103.653V29.492H100.125V3.564ZM92.2854 12.384H96.3174V15.436H92.2854V12.384ZM94.8614 4.04H98.3054V28.26H94.8614V4.04ZM125.211 3.536H128.907V29.548H125.211V3.536ZM120.759 12.664H125.631V15.688H120.759V12.664ZM108.327 20.672H110.399C114.683 20.672 117.875 20.616 121.543 20.028L121.879 22.996C118.127 23.584 114.767 23.696 110.399 23.696H108.327V20.672ZM108.327 5.72H120.339V8.744H112.023V21.624H108.327V5.72ZM111.183 12.944H119.443V15.856H111.183V12.944Z" fill="#59A4FB"/>
<path fill-rule="evenodd" clip-rule="evenodd" d="M143.311 1.3823L141.732 0.480591L141.816 2.2969L143.001 27.9034L143.065 29.2834L144.356 28.7917L158.245 23.5016L156.852 28.3701L154.365 26.2404C153.945 25.8812 153.314 25.9301 152.955 26.3496C152.596 26.7691 152.644 27.4004 153.064 27.7596L156.734 30.9024L157.917 31.9157L158.346 30.418L160.39 23.2751L160.58 22.6124L160.726 22.5567L160.628 22.4423L160.665 22.3137L160.472 22.2584L159.808 21.4781L150.761 10.8518C150.403 10.4313 149.772 10.3806 149.352 10.7386C148.931 11.0966 148.881 11.7277 149.239 12.1483L157.367 21.696L144.935 26.431L143.898 4.02074L168.616 18.137L162.215 20.0416C161.685 20.1991 161.384 20.7559 161.542 21.2852C161.699 21.8146 162.256 22.116 162.785 21.9585L171.428 19.387L173.67 18.72L171.639 17.5602L143.311 1.3823Z" fill="#59A4FB"/>
<path d="M141.732 0.480591L141.856 0.263499L141.461 0.0380722L141.482 0.492149L141.732 0.480591ZM143.311 1.3823L143.435 1.1652L143.311 1.3823ZM141.816 2.2969L142.066 2.28534L141.816 2.2969ZM143.001 27.9034L142.751 27.915L143.001 27.9034ZM143.065 29.2834L142.815 29.295L142.831 29.64L143.154 29.517L143.065 29.2834ZM144.356 28.7917L144.445 29.0253L144.356 28.7917ZM158.245 23.5016L158.485 23.5704L158.623 23.0902L158.156 23.268L158.245 23.5016ZM156.852 28.3701L156.689 28.56L156.985 28.8133L157.092 28.4388L156.852 28.3701ZM154.365 26.2404L154.202 26.4303V26.4303L154.365 26.2404ZM152.955 26.3496L152.765 26.187L152.955 26.3496ZM153.064 27.7596L153.227 27.5697L153.064 27.7596ZM156.734 30.9024L156.897 30.7125V30.7125L156.734 30.9024ZM157.917 31.9157L157.755 32.1055L158.051 32.3589L158.158 31.9844L157.917 31.9157ZM158.346 30.418L158.106 30.3492V30.3492L158.346 30.418ZM160.39 23.2751L160.15 23.2063L160.39 23.2751ZM160.58 22.6124L160.491 22.3787L160.374 22.4233L160.339 22.5436L160.58 22.6124ZM160.726 22.5567L160.815 22.7903L161.146 22.6643L160.916 22.3947L160.726 22.5567ZM160.628 22.4423L160.388 22.3735L160.351 22.5023L160.438 22.6043L160.628 22.4423ZM160.665 22.3137L160.905 22.3825L160.974 22.1421L160.734 22.0734L160.665 22.3137ZM160.472 22.2584L160.281 22.4204L160.33 22.478L160.403 22.4987L160.472 22.2584ZM159.808 21.4781L159.617 21.6402L159.808 21.4781ZM150.761 10.8518L150.952 10.6898L150.761 10.8518ZM149.352 10.7386L149.514 10.929L149.352 10.7386ZM149.239 12.1483L149.048 12.3103L149.239 12.1483ZM157.367 21.696L157.456 21.9297L157.786 21.8036L157.557 21.534L157.367 21.696ZM144.935 26.431L144.685 26.4425L144.701 26.7875L145.024 26.6646L144.935 26.431ZM143.898 4.02074L144.022 3.80365L143.627 3.57822L143.648 4.0323L143.898 4.02074ZM168.616 18.137L168.687 18.3767L169.248 18.2099L168.74 17.9199L168.616 18.137ZM162.215 20.0416L162.286 20.2812H162.286L162.215 20.0416ZM161.542 21.2852L161.781 21.2139V21.2139L161.542 21.2852ZM162.785 21.9585L162.714 21.7189L162.785 21.9585ZM171.428 19.387L171.499 19.6266L171.428 19.387ZM173.67 18.72L173.741 18.9597L174.301 18.7929L173.794 18.5029L173.67 18.72ZM171.639 17.5602L171.763 17.3431L171.639 17.5602ZM141.608 0.697683L143.187 1.59939L143.435 1.1652L141.856 0.263499L141.608 0.697683ZM142.066 2.28534L141.982 0.469033L141.482 0.492149L141.566 2.30846L142.066 2.28534ZM143.251 27.8919L142.066 2.28534L141.566 2.30846L142.751 27.915L143.251 27.8919ZM143.315 29.2719L143.251 27.8919L142.751 27.915L142.815 29.295L143.315 29.2719ZM144.267 28.5581L142.976 29.0498L143.154 29.517L144.445 29.0253L144.267 28.5581ZM158.156 23.268L144.267 28.5581L144.445 29.0253L158.334 23.7353L158.156 23.268ZM157.092 28.4388L158.485 23.5704L158.005 23.4328L156.611 28.3013L157.092 28.4388ZM154.202 26.4303L156.689 28.56L157.014 28.1802L154.527 26.0505L154.202 26.4303ZM153.145 26.5122C153.414 26.1976 153.888 26.1609 154.202 26.4303L154.527 26.0505C154.003 25.6015 153.214 25.6626 152.765 26.187L153.145 26.5122ZM153.227 27.5697C152.912 27.3003 152.875 26.8268 153.145 26.5122L152.765 26.187C152.316 26.7113 152.377 27.5004 152.901 27.9495L153.227 27.5697ZM156.897 30.7125L153.227 27.5697L152.901 27.9495L156.572 31.0923L156.897 30.7125ZM158.08 31.7258L156.897 30.7125L156.572 31.0923L157.755 32.1055L158.08 31.7258ZM158.106 30.3492L157.677 31.8469L158.158 31.9844L158.586 30.4868L158.106 30.3492ZM160.15 23.2063L158.106 30.3492L158.586 30.4868L160.63 23.3439L160.15 23.2063ZM160.339 22.5436L160.15 23.2063L160.63 23.3439L160.82 22.6811L160.339 22.5436ZM160.637 22.3231L160.491 22.3787L160.669 22.846L160.815 22.7903L160.637 22.3231ZM160.438 22.6043L160.535 22.7188L160.916 22.3947L160.819 22.2802L160.438 22.6043ZM160.425 22.2449L160.388 22.3735L160.869 22.511L160.905 22.3825L160.425 22.2449ZM160.403 22.4987L160.596 22.5541L160.734 22.0734L160.541 22.018L160.403 22.4987ZM159.617 21.6402L160.281 22.4204L160.662 22.0963L159.998 21.3161L159.617 21.6402ZM150.571 11.0139L159.617 21.6402L159.998 21.3161L150.952 10.6898L150.571 11.0139ZM149.514 10.929C149.829 10.6605 150.303 10.6985 150.571 11.0139L150.952 10.6898C150.504 10.1641 149.715 10.1007 149.19 10.5482L149.514 10.929ZM149.429 11.9862C149.16 11.6708 149.198 11.1975 149.514 10.929L149.19 10.5482C148.664 10.9957 148.601 11.7847 149.048 12.3103L149.429 11.9862ZM157.557 21.534L149.429 11.9862L149.048 12.3103L157.176 21.8581L157.557 21.534ZM145.024 26.6646L157.456 21.9297L157.278 21.4624L144.846 26.1973L145.024 26.6646ZM143.648 4.0323L144.685 26.4425L145.185 26.4194L144.148 4.00918L143.648 4.0323ZM168.74 17.9199L144.022 3.80365L143.774 4.23783L168.492 18.3541L168.74 17.9199ZM162.286 20.2812L168.687 18.3767L168.545 17.8974L162.144 19.802L162.286 20.2812ZM161.781 21.2139C161.663 20.8169 161.889 20.3993 162.286 20.2812L162.144 19.802C161.482 19.9988 161.105 20.6948 161.302 21.3565L161.781 21.2139ZM162.714 21.7189C162.317 21.837 161.899 21.611 161.781 21.2139L161.302 21.3565C161.499 22.0182 162.195 22.395 162.856 22.1981L162.714 21.7189ZM171.357 19.1474L162.714 21.7189L162.856 22.1981L171.499 19.6266L171.357 19.1474ZM173.598 18.4804L171.357 19.1474L171.499 19.6266L173.741 18.9597L173.598 18.4804ZM171.515 17.7773L173.546 18.9371L173.794 18.5029L171.763 17.3431L171.515 17.7773ZM143.187 1.59939L171.515 17.7773L171.763 17.3431L143.435 1.1652L143.187 1.59939Z" fill="#59A4FB"/>
</svg>
